<?xml version="1.0" encoding="iso-8859-1"?>
<!-- Uploaded to: SVG Repo, www.svgrepo.com, Generator: SVG Repo Mixer Tools -->
<svg fill="#000000" version="1.1" id="Capa_1" xmlns="http://www.w3.org/2000/svg" xmlns:xlink="http://www.w3.org/1999/xlink" 
	 viewBox="0 0 60.06 60.06" xml:space="preserve">
<g>
	<g>
		<path d="M59.06,26.005c0.6,0,1-0.4,1-1v-4c0-0.5-0.3-0.8-0.7-1l-28.8-19.8c-0.3-0.2-0.8-0.2-1.1,0l-28.9,19.9
			c-0.1,0.1-0.2,0.1-0.3,0.2c-0.3,0.2-0.3,0.6-0.2,1v3.7c0,0.6,0.4,1,1,1h1v28h-1c-0.6,0-1,0.4-1,1v4c0,0.6,0.4,1,1,1h14h30h14
			c0.6,0,1-0.4,1-1v-4c0-0.6-0.4-1-1-1h-1v-28L59.06,26.005L59.06,26.005z M58.06,24.005h-1h-10h-1v-2h12V24.005z M46.06,28.005h-5
			v2h5v9h-5v2h5v8h-8v-8c0-4.5-3.5-8-8-8s-8,3.5-8,8v8h-8v-3h5v-2h-5v-11h5v-2h-5v-5h1c0.6,0,1-0.4,1-1v-3h28v3c0,0.6,0.4,1,1,1h1
			V28.005z M29.06,49.005h-5v-8c0-3.1,2.1-5.5,5-5.9V49.005z M31.06,35.005c2.9,0.5,5,2.9,5,5.9v8h-5V35.005z M3.06,24.005h-1v-2h12
			v2h-1H3.06z M7.16,18.005h31.9v-2h-29l20-13.8l25.8,17.8h-10.8h-30H4.26L7.16,18.005z M4.06,26.005h2v17h2v-17h4v28h-8V26.005z
			 M14.06,58.005h-12v-2h1h10h1V58.005z M44.06,55.005v3h-28v-3c0-0.6-0.4-1-1-1h-1v-3h32v3h-1
			C44.46,54.005,44.06,54.405,44.06,55.005z M58.06,58.005h-12v-2h1h10h1V58.005z M56.06,54.005h-8v-28h2v17h2v-17h4V54.005z"/>
		<path d="M30.06,6.005c-2.2,0-4,1.8-4,4s1.8,4,4,4s4-1.8,4-4S32.26,6.005,30.06,6.005z M30.06,12.005c-1.1,0-2-0.9-2-2s0.9-2,2-2
			s2,0.9,2,2S31.16,12.005,30.06,12.005z"/>
		<rect x="6.06" y="45.005" width="2" height="3"/>
		<rect x="50.06" y="45.005" width="2" height="3"/>
		<rect x="18.06" y="54.005" width="24" height="2"/>
		<rect x="25.06" y="28.005" width="10" height="2"/>
		<rect x="27.06" y="24.005" width="6" height="2"/>
	</g>
</g>
</svg>